<svg width="12" height="12" viewBox="0 0 12 12" fill="none" xmlns="http://www.w3.org/2000/svg">
<path d="M11.4311 0H5.68237C5.68237 1.42886 6.84542 2.59189 8.27431 2.59189H9.33766V3.60538C9.33766 5.03424 10.5007 6.19727 11.9296 6.19727V0.49844C11.9296 0.215991 11.697 0 11.4311 0Z" fill="white"/>
<path d="M8.58923 2.85815H2.84045C2.84045 4.28702 4.0035 5.45004 5.43239 5.45004H6.49574V6.48015C6.49574 7.90901 7.65879 9.07204 9.08767 9.07204V3.37321C9.08767 3.09076 8.85507 2.85815 8.58923 2.85815Z" fill="url(#paint0_linear_2450_90091)"/>
<path d="M5.74877 5.71558H0C0 7.14444 1.16305 8.30746 2.59193 8.30746H3.63867V9.32096C3.63867 10.7498 4.80172 11.9128 6.23061 11.9128V6.1974C6.24722 5.94818 6.01461 5.71558 5.74877 5.71558Z" fill="url(#paint1_linear_2450_90091)"/>
<defs>
<linearGradient id="paint0_linear_2450_90091" x1="8.96017" y1="2.87025" x2="6.51616" y2="5.39074" gradientUnits="userSpaceOnUse">
<stop offset="0.15" stop-color="white" stop-opacity="0.4"/>
<stop offset="0.29" stop-color="white" stop-opacity="0.47"/>
<stop offset="0.56" stop-color="white" stop-opacity="0.66"/>
<stop offset="0.95" stop-color="white" stop-opacity="0.96"/>
<stop offset="1" stop-color="white"/>
</linearGradient>
<linearGradient id="paint1_linear_2450_90091" x1="6.28002" y1="5.74837" x2="3.45386" y2="8.49815" gradientUnits="userSpaceOnUse">
<stop offset="0.15" stop-color="white" stop-opacity="0.4"/>
<stop offset="0.29" stop-color="white" stop-opacity="0.47"/>
<stop offset="0.56" stop-color="white" stop-opacity="0.66"/>
<stop offset="0.95" stop-color="white" stop-opacity="0.96"/>
<stop offset="1" stop-color="white"/>
</linearGradient>
</defs>
</svg>
